<svg width="60" height="60" viewBox="0 0 60 60" fill="none" xmlns="http://www.w3.org/2000/svg">
<circle cx="30" cy="30" r="30" fill="#2C2C2C"/>
<circle cx="30" cy="30" r="22" fill="#7A66CC"/>
<g clip-path="url(#clip0_1_194)">
<path d="M41.499 24.2028C41.3599 23.7043 41.0946 23.2501 40.7286 22.8842C40.3627 22.5182 39.9085 22.2529 39.41 22.1138C37.54 21.6128 30.01 21.6128 30.01 21.6128C30.01 21.6128 22.501 21.6028 20.611 22.1138C20.1126 22.2531 19.6585 22.5187 19.2928 22.8848C18.927 23.2509 18.6619 23.7052 18.523 24.2038C18.1682 26.1186 17.9931 28.0624 18 30.0098C17.9944 31.9502 18.1695 33.8869 18.523 35.7948C18.662 36.2932 18.9272 36.7473 19.293 37.1132C19.6587 37.4792 20.1127 37.7446 20.611 37.8838C22.48 38.3858 30.011 38.3858 30.011 38.3858C30.011 38.3858 37.519 38.3858 39.41 37.8838C39.9086 37.7446 40.3629 37.4791 40.7288 37.113C41.0948 36.7469 41.3601 36.2925 41.499 35.7938C41.8447 33.8855 42.0121 31.9491 41.999 30.0098C42.0136 28.0625 41.8462 26.118 41.499 24.2018V24.2028ZM27.608 33.6028V26.4068L33.874 30.0108L27.608 33.6028Z" fill="white"/>
</g>
<defs>
<clipPath id="clip0_1_194">
<rect width="24" height="24" fill="white" transform="translate(18 18)"/>
</clipPath>
</defs>
</svg>
